PathFileType	4	(X/Y/Z)	C:\Users\86182\Documents\cortex\Trimmed_M4_L4.trc
DataRate	CameraRate	NumFrames	NumMarkers	Units	OrigDataRate	OrigDataStartFrame	OrigNumFrames
100.00	100.00	       112	2	mm	100.00	541	       901
Frame#	Time	gripper			box			
		X1	Y1	Z1	X2	Y2	Z2	

541	5.400	276.26041	151.26115	292.59286	277.54910	149.12759	157.48901	
542	5.410	276.26132	151.26175	292.59229	277.55072	149.12856	157.48743	
543	5.420	276.26123	151.26154	292.59308	277.55148	149.12849	157.48672	
544	5.430	276.26047	151.26070	292.59534	277.55148	149.12752	157.48697	
545	5.440	276.25949	151.25945	292.59897	277.55093	149.12592	157.48798	
546	5.450	276.25842	151.25792	292.60364	277.55017	149.12404	157.48944	
547	5.460	276.25726	151.25621	292.60892	277.54932	149.12209	157.49123	
548	5.470	276.25607	151.25443	292.61444	277.54849	149.12024	157.49307	
549	5.480	276.25491	151.25269	292.61966	277.54761	149.11876	157.49477	
550	5.490	276.25385	151.25122	292.62372	277.54663	149.11794	157.49600	
551	5.500	276.25287	151.25024	292.62549	277.54572	149.11792	157.49649	
552	5.510	276.25217	151.25003	292.62415	277.54507	149.11873	157.49606	
553	5.520	276.25183	151.25063	292.61981	277.54480	149.12021	157.49478	
554	5.530	276.25192	151.25188	292.61340	277.54492	149.12209	157.49286	
555	5.540	276.25244	151.25349	292.60651	277.54547	149.12405	157.49065	
556	5.550	276.25339	151.25511	292.60056	277.54623	149.12569	157.48865	
557	5.560	276.25455	151.25638	292.59692	277.54691	149.12653	157.48758	
558	5.570	276.25568	151.25699	292.59634	277.54721	149.12614	157.48801	
559	5.580	276.25641	151.25682	292.59894	277.54700	149.12448	157.49020	
560	5.590	276.25644	151.25589	292.60397	277.54626	149.12173	157.49396	
561	5.600	276.25571	151.25436	292.61050	277.54520	149.11850	157.49854	
562	5.610	276.25433	151.25246	292.61725	277.54398	149.11562	157.50291	
563	5.620	276.25250	151.25053	292.62289	277.54291	149.11385	157.50600	
564	5.630	276.25052	151.24895	292.62637	277.54214	149.11348	157.50708	
565	5.640	276.24893	151.24808	292.62714	277.54190	149.11441	157.50601	
566	5.650	276.24820	151.24815	292.62531	277.54208	149.11623	157.50336	
567	5.660	276.24844	151.24913	292.62143	277.54248	149.11836	157.50000	
568	5.670	276.24924	151.25058	292.61649	277.54285	149.12024	157.49695	
569	5.680	276.24997	151.25201	292.61136	277.54291	149.12151	157.49471	
570	5.690	276.25012	151.25308	292.60663	277.54263	149.12207	157.49347	
571	5.700	276.24976	151.25374	292.60260	277.54214	149.12207	157.49316	
572	5.710	276.24936	151.25415	292.59964	277.54150	149.12164	157.49356	
573	5.720	276.24924	151.25439	292.59814	277.54089	149.12099	157.49448	
574	5.730	276.24921	151.25435	292.59830	277.54025	149.12016	157.49573	
575	5.740	276.24893	151.25381	292.60010	277.53955	149.11917	157.49715	
576	5.750	276.24826	151.25284	292.60309	277.53870	149.11795	157.49876	
577	5.760	276.24731	151.25157	292.60681	277.53769	149.11649	157.50061	
578	5.770	276.24612	151.25012	292.61087	277.53671	149.11487	157.50266	
579	5.780	276.24496	151.24869	292.61487	277.53598	149.11336	157.50470	
580	5.790	276.24429	151.24767	292.61813	277.53589	149.11237	157.50627	
581	5.800	276.24469	151.24748	292.61993	277.53671	149.11232	157.50673	
582	5.810	276.24631	151.24832	292.61987	277.53839	149.11345	157.50568	
583	5.820	276.24890	151.25008	292.61777	277.54077	149.11572	157.50314	
584	5.830	276.25171	151.25240	292.61356	277.54346	149.11887	157.49939	
585	5.840	276.25388	151.25478	292.60742	277.54605	149.12239	157.49500	
586	5.850	276.25482	151.25681	292.60010	277.54803	149.12555	157.49072	
587	5.860	276.25449	151.25815	292.59290	277.54901	149.12775	157.48738	
588	5.870	276.25323	151.25867	292.58740	277.54889	149.12865	157.48569	
589	5.880	276.25159	151.25833	292.58505	277.54785	149.12813	157.48605	
590	5.890	276.25012	151.25728	292.58649	277.54602	149.12625	157.48853	
591	5.900	276.24915	151.25575	292.59140	277.54355	149.12323	157.49277	
592	5.910	276.24887	151.25412	292.59854	277.54080	149.11952	157.49808	
593	5.920	276.24915	151.25267	292.60614	277.53818	149.11580	157.50342	
594	5.930	276.24960	151.25160	292.61230	277.53622	149.11276	157.50772	
595	5.940	276.24982	151.25108	292.61530	277.53534	149.11101	157.51010	
596	5.950	276.24979	151.25137	292.61389	277.53568	149.11090	157.51001	
597	5.960	276.24969	151.25259	292.60782	277.53717	149.11250	157.50732	
598	5.970	276.24954	151.25452	292.59827	277.53946	149.11546	157.50266	
599	5.980	276.24921	151.25661	292.58737	277.54184	149.11902	157.49698	
600	5.990	276.24838	151.25818	292.57767	277.54379	149.12230	157.49149	
601	6.000	276.24686	151.25868	292.57129	277.54498	149.12456	157.48715	
602	6.010	276.24442	151.25772	292.56949	277.54517	149.12529	157.48473	
603	6.020	276.24081	151.25513	292.57275	277.54437	149.12427	157.48477	
604	6.030	276.23605	151.25098	292.58057	277.54285	149.12166	157.48749	
605	6.040	276.23038	151.24574	292.59161	277.54089	149.11795	157.49255	
606	6.050	276.22446	151.24022	292.60376	277.53879	149.11401	157.49881	
607	6.060	276.21921	151.23540	292.61444	277.53690	149.11089	157.50458	
608	6.070	276.21561	151.23221	292.62137	277.53586	149.10947	157.50815	
609	6.080	276.21454	151.23145	292.62286	277.53607	149.11017	157.50861	
610	6.090	276.21646	151.23341	292.61853	277.53757	149.11273	157.50610	
611	6.100	276.22110	151.23773	292.60941	277.53989	149.11649	157.50162	
612	6.110	276.22736	151.24342	292.59760	277.54251	149.12054	157.49637	
613	6.120	276.23392	151.24928	292.58551	277.54480	149.12413	157.49155	
614	6.130	276.23959	151.25429	292.57544	277.54645	149.12672	157.48801	
615	6.140	276.24371	151.25775	292.56897	277.54721	149.12810	157.48611	
616	6.150	276.24606	151.25938	292.56686	277.54718	149.12827	157.48592	
617	6.160	276.24658	151.25920	292.56906	277.54639	149.12744	157.48712	
618	6.170	276.24533	151.25740	292.57474	277.54507	149.12587	157.48938	
619	6.180	276.24258	151.25438	292.58252	277.54340	149.12378	157.49240	
620	6.190	276.23868	151.25072	292.59067	277.54163	149.12149	157.49570	
621	6.200	276.23425	151.24699	292.59778	277.54001	149.11938	157.49875	
622	6.210	276.23004	151.24374	292.60312	277.53894	149.11774	157.50102	
623	6.220	276.22690	151.24144	292.60632	277.53857	149.11671	157.50229	
624	6.230	276.22540	151.24033	292.60751	277.53906	149.11627	157.50253	
625	6.240	276.22583	151.24046	292.60696	277.54037	149.11624	157.50189	
626	6.250	276.22836	151.24181	292.60519	277.54245	149.11644	157.50067	
627	6.260	276.23306	151.24426	292.60266	277.54510	149.11671	157.49908	
628	6.270	276.23959	151.24759	292.59985	277.54813	149.11702	157.49734	
629	6.280	276.24677	151.25117	292.59729	277.55112	149.11737	157.49554	
630	6.290	276.25317	151.25435	292.59525	277.55365	149.11781	157.49384	
631	6.300	276.25769	151.25677	292.59375	277.55499	149.11850	157.49228	
632	6.310	276.25983	151.25833	292.59277	277.55457	149.11952	157.49083	
633	6.320	276.25955	151.25893	292.59210	277.55225	149.12070	157.48941	
634	6.330	276.25690	151.25847	292.59143	277.54813	149.12143	157.48811	
635	6.340	276.25198	151.25685	292.59076	277.54233	149.12096	157.48732	
636	6.350	276.24530	151.25410	292.59055	277.53519	149.11887	157.48752	
637	6.360	276.23788	151.25049	292.59189	277.52774	149.11542	157.48904	
638	6.370	276.23129	151.24654	292.59564	277.52173	149.11151	157.49185	
639	6.380	276.22693	151.24284	292.60193	277.51889	149.10822	157.49557	
640	6.390	276.22565	151.23990	292.60986	277.52002	149.10622	157.49954	
641	6.400	276.22769	151.23808	292.61761	277.52457	149.10553	157.50287	
642	6.410	276.23282	151.23770	292.62268	277.53128	149.10582	157.50485	
643	6.420	276.24039	151.23880	292.62292	277.53876	149.10674	157.50513	
644	6.430	276.24924	151.24117	292.61755	277.54587	149.10818	157.50357	
645	6.440	276.25790	151.24432	292.60745	277.55188	149.11032	157.50043	
646	6.450	276.26459	151.24776	292.59476	277.55621	149.11314	157.49637	
647	6.460	276.26758	151.25090	292.58234	277.55844	149.11621	157.49249	
648	6.470	276.26614	151.25317	292.57294	277.55832	149.11888	157.48993	
649	6.480	276.26065	151.25386	292.56882	277.55597	149.12053	157.48950	
650	6.490	276.25214	151.25237	292.57111	277.55191	149.12062	157.49158	
651	6.500	276.24164	151.24838	292.57990	277.54688	149.11897	157.49597	
652	6.510	276.23007	151.24220	292.59412	277.54156	149.11598	157.50189	
